<svg viewBox="0 0 512 512" width="100%" height="100%">
    <defs>
        <linearGradient id="bgGrad" x1="0%" y1="0%" x2="100%" y2="100%">
            <stop offset="0%" stop-color="#151515"/>
            <stop offset="100%" stop-color="#080808"/>
        </linearGradient>
        <linearGradient id="primaryRed" x1="0%" y1="0%" x2="100%" y2="100%">
            <stop offset="0%" stop-color="#FF003C"/>
            <stop offset="100%" stop-color="#99001D"/>
        </linearGradient>
        <linearGradient id="accentOrange" x1="0%" y1="100%" x2="100%" y2="0%">
            <stop offset="0%" stop-color="#FF3B30"/>
            <stop offset="100%" stop-color="#FF8343"/>
        </linearGradient>
        <filter id="neonGlow" x="-20%" y="-20%" width="140%" height="140%">
            <feGaussianBlur stdDeviation="12" result="blur"/>
            <feComposite in="SourceGraphic" in2="blur" operator="over"/>
        </filter>
    </defs>

    <rect width="512" height="512" rx="110" fill="url(#bgGrad)"/>
    <rect x="16" y="16" width="480" height="480" rx="94" fill="none" stroke="#252525" stroke-width="4"/>

    <g transform="translate(12, 8)">
        <path d="M 244 80 L 380 160 L 380 320 L 244 400 L 108 320 L 108 160 Z" fill="none" stroke="#1F1F1F" stroke-width="24" stroke-linejoin="round"/>

        <path d="M 244 90 L 370 165 L 370 315 L 244 390 L 118 315 L 118 165 Z" fill="url(#primaryRed)" stroke="#FF003C" stroke-width="2" stroke-linejoin="round"/>

        <path d="M 244 90 L 370 165 L 244 240 Z" fill="url(#accentOrange)" opacity="0.65"/>
        <path d="M 118 165 L 244 90 L 244 240 Z" fill="#FF5252" opacity="0.15"/>
        <path d="M 118 315 L 118 165 L 244 240 Z" fill="#4A000B" opacity="0.4"/>
        <path d="M 244 390 L 118 315 L 244 240 Z" fill="#330005" opacity="0.6"/>

        <path d="M 244 240 L 370 315 L 244 390 Z" fill="url(#accentOrange)" opacity="0.85" filter="url(#neonGlow)"/>

        <path d="M 244 240 L 370 165 L 370 315 Z" fill="#FFFFFF" opacity="0.25"/>

        <path d="M 244 90 L 244 390" stroke="#FFFFFF" stroke-width="1.5" opacity="0.3"/>
        <path d="M 118 165 L 370 315" stroke="#FFFFFF" stroke-width="1" opacity="0.2"/>
        <path d="M 370 165 L 118 315" stroke="#000000" stroke-width="2.5" opacity="0.4"/>

        <polygon points="244,140 290,240 244,210 198,240" fill="#101010" opacity="0.85"/>
    </g>
</svg>
